<?xml version="1.0" encoding="utf-8"?>
<!-- https://www.svgrepo.com/svg/509692/shape13 -->
<svg width="800px" height="800px" viewBox="0 -52.56 233.47 233.47" xmlns="http://www.w3.org/2000/svg">

<defs>

<style>.cls-1{fill:transparent;}</style>

</defs>

<g id="Layer_2" data-name="Layer 2">

<g id="Layer_1-2" data-name="Layer 1">

<path d="M227.88,106.71c-13.9,1.38-26.73,2.42-39.5,4-10.49,1.29-20.88,3.37-31.35,4.83-17.28,2.4-34.6,4.6-51.9,6.84-6,.77-11.95,1.32-17.9,2.1a510.62,510.62,0,0,1-51.37,3.84c-6.86.2-13.73-.34-20.59-.62a16.28,16.28,0,0,1-4.22-.71c-2.29-.72-4.11-2-4.61-4.6-1.76-9-3.9-17.88-5.14-26.91A136.81,136.81,0,0,1,.05,73.22C.5,56.42,6.55,41.4,15.94,27.64a32.63,32.63,0,0,1,4.61-5.09c9.25-8.81,21.2-8.9,30.82-.46,4.14,3.63,7.75,7.55,10.13,12.61a50.71,50.71,0,0,0,4.92,8c3.92,5.44,10.83,6.37,15.6,1.73a44.52,44.52,0,0,0,7.08-9.57c1.57-2.69,2.19-5.9,3.46-8.78a53.05,53.05,0,0,1,17.3-22c9.06-6.64,24.8-6,32,6.72,2.25,4,4.12,8.18,6.3,12.21,2.31,4.27,4.6,8.59,7.26,12.64,2.79,4.25,4.94,4.58,9.31,1.75,4.08-2.65,7.88-5.58,10.8-9.68A88.17,88.17,0,0,1,185.42,16C194,7.62,208,7.19,217.66,14.31c7.87,5.81,12.56,12.93,12.35,23.15-.09,4.2,1.44,8.44,2.22,12.66,1.73,9.39,1.43,18.82.43,28.24-.67,6.27-1.44,12.53-2.4,18.75C229.79,100.16,228.78,103.13,227.88,106.71Zm-8-9.15a205.76,205.76,0,0,0,3-28.34c.46-12.66-2-25.06-4.58-37.41-.91-4.42-3.84-7.62-7-10.58-4.42-4.11-9.81-4.62-15-1.42a18,18,0,0,0-4,3.25,110.41,110.41,0,0,0-9.35,11.19,32.75,32.75,0,0,1-9.83,9.33c-11.3,7.26-22.1,5.06-29.34-6.35-2-3.12-3.57-6.51-5.31-9.8-1.88-3.54-3.61-7.16-5.63-10.61a24.4,24.4,0,0,0-4.15-5.41c-4.39-4.18-9.31-4.22-13.72-.08-5.26,4.94-9.73,10.49-12.19,17.42a86.51,86.51,0,0,1-3.65,9.64C91.52,53.93,84.85,59.06,66.34,53.91a16.1,16.1,0,0,1-10.69-9.18c-1.84-3.87-3.78-7.7-5.53-11.61a16.5,16.5,0,0,0-6.95-7.38C38.6,23,34.39,23,30.53,26.54a44.24,44.24,0,0,0-8.33,9.71C14.34,49.53,9.32,63.77,10.07,79.46c.62,12.86,1.63,25.69,2.53,38.53a8.66,8.66,0,0,0,1.12,2.54c1.94.14,3.92.29,5.89.41,8.05.48,16-.94,23.94-1.66,15.11-1.36,30.25-2.46,45.36-3.84,5.69-.51,11.33-1.53,17-2.23,11.63-1.44,23.32-2.47,34.88-4.34,8.73-1.42,17.69-1.73,26.16-4.71,1.57-.55,3.41-.32,5.11-.5,4-.41,8-.79,11.93-1.31C195.62,100.83,207.23,99.26,219.88,97.56Z"/>

<path class="cls-1" d="M219.88,97.56c-12.65,1.7-24.26,3.27-35.88,4.79-4,.52-7.95.9-11.93,1.31-1.7.18-3.54,0-5.11.5-8.47,3-17.43,3.29-26.16,4.71-11.56,1.87-23.25,2.9-34.88,4.34-5.68.7-11.32,1.72-17,2.23-15.11,1.38-30.25,2.48-45.36,3.84-8,.72-15.89,2.14-23.94,1.66-2-.12-3.95-.27-5.89-.41A8.66,8.66,0,0,1,12.6,118c-.9-12.84-1.91-25.67-2.53-38.53C9.32,63.77,14.34,49.53,22.2,36.25a44.24,44.24,0,0,1,8.33-9.71C34.39,23,38.6,23,43.17,25.74a16.5,16.5,0,0,1,6.95,7.38c1.75,3.91,3.69,7.74,5.53,11.61a16.1,16.1,0,0,0,10.69,9.18c18.51,5.15,25.18,0,32.89-15.52a86.51,86.51,0,0,0,3.65-9.64c2.46-6.93,6.93-12.48,12.19-17.42,4.41-4.14,9.33-4.1,13.72.08a24.4,24.4,0,0,1,4.15,5.41c2,3.45,3.75,7.07,5.63,10.61,1.74,3.29,3.32,6.68,5.31,9.8,7.24,11.41,18,13.61,29.34,6.35a32.75,32.75,0,0,0,9.83-9.33,110.41,110.41,0,0,1,9.35-11.19,18,18,0,0,1,4-3.25c5.15-3.2,10.54-2.69,15,1.42,3.16,3,6.09,6.16,7,10.58,2.56,12.35,5,24.75,4.58,37.41A205.76,205.76,0,0,1,219.88,97.56Z"/>

</g>

</g>

</svg>